<svg width="45" height="47" viewBox="0 0 45 47" fill="none" xmlns="http://www.w3.org/2000/svg">
<path d="M22.3598 0.570374C10.1947 0.570374 0.338257 10.902 0.338257 23.6537C0.338257 36.4054 10.1947 46.737 22.3598 46.737C34.525 46.737 44.3814 36.4054 44.3814 23.6537C44.3814 10.902 34.525 0.570374 22.3598 0.570374ZM22.3598 9.50586C26.6754 9.50586 30.174 13.1731 30.174 17.6967C30.174 22.2203 26.6754 25.8876 22.3598 25.8876C18.0443 25.8876 14.5457 22.2203 14.5457 17.6967C14.5457 13.1731 18.0443 9.50586 22.3598 9.50586ZM22.3598 41.5247C17.1475 41.5247 12.4768 39.0488 9.35112 35.1768C11.0205 31.8818 14.2882 29.6107 18.0976 29.6107C18.3107 29.6107 18.5238 29.6479 18.7281 29.7131C19.8824 30.104 21.09 30.3553 22.3598 30.3553C23.6296 30.3553 24.8461 30.104 25.9916 29.7131C26.1959 29.6479 26.409 29.6107 26.6221 29.6107C30.4315 29.6107 33.6992 31.8818 35.3686 35.1768C32.2429 39.0488 27.5722 41.5247 22.3598 41.5247Z" fill="white"/>
</svg>
